<?xml version="1.0" standalone="no"?>
<!DOCTYPE svg PUBLIC "-//W3C//DTD SVG 20010904//EN"
 "http://www.w3.org/TR/2001/REC-SVG-20010904/DTD/svg10.dtd">
<svg version="1.0" xmlns="http://www.w3.org/2000/svg"
 width="230.000000pt" height="231.000000pt" viewBox="0 0 230.000000 231.000000"
 preserveAspectRatio="xMidYMid meet">
<metadata>
Created by potrace 1.16, written by Peter Selinger 2001-2019
</metadata>
<g transform="translate(0.000000,231.000000) scale(0.100000,-0.100000)"
fill="#000000" stroke="none">
<path d="M0 1155 l0 -1155 1150 0 1150 0 0 1155 0 1155 -1150 0 -1150 0 0
-1155z m755 1065 c13 -15 16 -30 12 -61 l-6 -42 134 -141 c73 -78 151 -162
172 -188 36 -46 40 -48 89 -48 50 0 53 2 125 73 68 66 247 206 344 269 35 22
41 31 41 61 0 46 27 77 68 77 37 0 49 -7 65 -38 28 -54 -39 -119 -95 -93 -29
13 -12 22 -195 -119 -46 -35 -126 -105 -177 -154 -86 -83 -91 -90 -73 -103 24
-16 61 -75 61 -97 0 -14 -19 -16 -170 -16 l-171 0 12 21 c6 12 28 40 49 63
l38 41 -61 71 c-34 40 -103 119 -153 176 -51 58 -98 114 -104 125 -9 13 -20
18 -36 15 -40 -7 -71 6 -84 37 -12 30 -2 66 24 83 22 15 73 8 91 -12z m1259
-659 c52 -13 87 -39 108 -82 16 -31 18 -73 18 -434 0 -591 -17 -680 -136 -715
-77 -22 -621 -33 -1079 -21 -548 14 -607 25 -667 122 -44 71 -52 157 -52 599
-1 390 -1 396 22 441 29 60 81 89 175 98 110 11 1565 4 1611 -8z"/>
<path d="M645 1490 c-152 -9 -197 -16 -246 -41 -67 -33 -94 -107 -110 -301
-12 -142 2 -522 22 -593 17 -59 91 -129 157 -149 94 -27 305 -39 712 -40 519
0 571 8 610 97 30 68 40 158 47 427 9 397 -13 531 -97 572 -23 12 -81 21 -170
28 -149 11 -721 11 -925 0z m149 -412 c-6 -318 -15 -370 -64 -412 -58 -48
-132 -53 -195 -12 -31 20 -55 96 -55 170 l0 61 55 -3 55 -4 0 -55 c0 -63 13
-93 40 -93 39 0 44 33 51 330 4 157 7 286 8 287 1 2 55 9 88 11 l23 2 -6 -282z
m546 140 c32 -16 46 -30 48 -47 7 -49 -66 -71 -86 -26 -12 25 -27 30 -56 19
-35 -13 -15 -40 61 -79 88 -46 113 -78 113 -146 0 -35 -6 -52 -25 -73 -72 -77
-207 -73 -260 8 l-17 25 -32 -33 c-62 -66 -169 -58 -230 17 -27 34 -31 48 -34
112 -4 66 -1 79 24 126 24 43 38 57 82 77 65 29 112 24 154 -18 64 -64 10
-139 -129 -180 -24 -7 -43 -17 -43 -22 0 -5 13 -23 30 -39 23 -24 37 -30 62
-27 27 2 34 9 42 36 l9 34 75 -6 c41 -4 78 -9 83 -12 5 -3 9 -18 9 -34 0 -39
31 -56 71 -40 66 28 43 79 -60 134 -39 20 -77 47 -86 59 -34 49 -10 107 59
138 54 24 82 24 136 -3z m320 -23 c47 -24 67 -79 33 -88 -68 -19 -72 -18 -75
10 -3 24 -8 28 -33 28 -22 0 -31 -5 -33 -20 -2 -15 14 -29 69 -60 87 -48 119
-87 119 -141 0 -50 -22 -81 -74 -105 -46 -21 -92 -24 -133 -8 -68 25 -115 108
-77 136 23 17 68 17 82 0 6 -7 9 -22 6 -33 -3 -12 1 -26 10 -33 20 -17 77 -10
90 12 18 29 -12 66 -89 109 -81 45 -105 70 -105 108 0 76 127 128 210 85z
m-545 -497 c56 -25 36 -91 -31 -104 -29 -5 -34 -10 -34 -35 0 -26 -4 -29 -30
-29 l-30 0 0 90 0 90 50 0 c27 0 61 -5 75 -12z m290 -55 l19 -48 19 48 c17 41
23 47 48 47 16 0 29 -4 29 -8 0 -4 -13 -39 -29 -77 -29 -69 -30 -70 -68 -70
-37 0 -37 0 -70 78 l-32 77 33 0 c30 0 35 -4 51 -47z"/>
<path d="M1958 1449 c-10 -5 -18 -16 -18 -23 0 -7 -11 -22 -25 -34 -37 -32
-28 -121 17 -169 19 -21 29 -24 61 -19 45 7 42 -9 -3 -19 -32 -7 -70 9 -70 29
0 8 -7 19 -15 26 -12 10 -16 9 -22 -6 -9 -25 62 -84 102 -84 45 0 73 10 80 28
9 23 17 162 11 187 -5 21 -23 25 -106 27 -40 0 -42 1 -25 14 11 8 25 12 32 10
7 -3 13 1 13 9 0 8 0 18 1 22 1 12 -15 13 -33 2z"/>
<path d="M1926 1072 c-25 -37 -34 -86 -18 -96 4 -3 16 11 27 30 17 32 43 50
32 22 -3 -7 -8 -21 -12 -30 -10 -26 17 -32 55 -13 39 20 48 14 26 -20 -21 -32
-61 -43 -85 -21 -22 20 -31 20 -31 2 0 -17 22 -26 67 -26 25 0 43 8 64 29 41
42 38 74 -11 122 -52 51 -79 51 -114 1z"/>
</g>
</svg>
